<?xml version="1.0" encoding="UTF-8" standalone="no"?>
<!-- Generator: Adobe Illustrator 19.0.0, SVG Export Plug-In . SVG Version: 6.00 Build 0)  -->

<svg
   xmlns:dc="http://purl.org/dc/elements/1.1/"
   xmlns:cc="http://creativecommons.org/ns#"
   xmlns:rdf="http://www.w3.org/1999/02/22-rdf-syntax-ns#"
   xmlns:svg="http://www.w3.org/2000/svg"
   xmlns="http://www.w3.org/2000/svg"
   xmlns:sodipodi="http://sodipodi.sourceforge.net/DTD/sodipodi-0.dtd"
   xmlns:inkscape="http://www.inkscape.org/namespaces/inkscape"
   version="1.1"
   id="Layer_1"
   x="0px"
   y="0px"
   viewBox="0 0 500.00001 500.00001"
   xml:space="preserve"
   sodipodi:docname="facebook.svg"
   width="500"
   height="500"
   inkscape:version="0.92.4 5da689c313, 2019-01-14"><metadata
   id="metadata39"><rdf:RDF><cc:Work
       rdf:about=""><dc:format>image/svg+xml</dc:format><dc:type
         rdf:resource="http://purl.org/dc/dcmitype/StillImage" /><dc:title></dc:title></cc:Work></rdf:RDF></metadata><defs
   id="defs37" /><sodipodi:namedview
   pagecolor="#ffffff"
   bordercolor="#666666"
   borderopacity="1"
   objecttolerance="10"
   gridtolerance="10"
   guidetolerance="10"
   inkscape:pageopacity="0"
   inkscape:pageshadow="2"
   inkscape:window-width="1366"
   inkscape:window-height="674"
   id="namedview35"
   showgrid="false"
   inkscape:zoom="0.20411216"
   inkscape:cx="1341.3999"
   inkscape:cy="353.08092"
   inkscape:window-x="0"
   inkscape:window-y="26"
   inkscape:window-maximized="1"
   inkscape:current-layer="Layer_1" />
<path
   style="fill:#475993"
   d="m 1843.0782,-384.01691 h -298.614 c -30.422,0 -55.085,24.662 -55.085,55.085 v 298.616003 c 0,30.42300026 24.662,55.085 55.085,55.085 h 147.275 l 0.251,-146.078003 h -37.951 c -4.932,0 -8.935,-3.988 -8.954,-8.92 l -0.182,-47.087 c -0.019,-4.959 3.996,-8.989 8.955,-8.989 h 37.882 v -45.498 c 0,-52.8 32.247,-81.55 79.348,-81.55 h 38.65 c 4.945,0 8.955,4.009 8.955,8.955 v 39.704 c 0,4.944 -4.007,8.952 -8.95,8.955 l -23.719,0.011 c -25.615,0 -30.575,12.172 -30.575,30.035 v 39.389 h 56.285 c 5.363,0 9.524,4.683 8.892,10.009 l -5.581,47.087 c -0.534,4.506 -4.355,7.901 -8.892,7.901 h -50.453 l -0.251,146.078003 h 87.631 c 30.422,0 55.084,-24.66199974 55.084,-55.084 V -328.93191 c -10e-4,-30.423 -24.663,-55.085 -55.086,-55.085 z"
   id="path2"
   inkscape:connector-curvature="0" />
<g
   id="g4"
   transform="translate(1489.3772,-384.01691)">
</g>
<g
   id="g6"
   transform="translate(1489.3772,-384.01691)">
</g>
<g
   id="g8"
   transform="translate(1489.3772,-384.01691)">
</g>
<g
   id="g10"
   transform="translate(1489.3772,-384.01691)">
</g>
<g
   id="g12"
   transform="translate(1489.3772,-384.01691)">
</g>
<g
   id="g14"
   transform="translate(1489.3772,-384.01691)">
</g>
<g
   id="g16"
   transform="translate(1489.3772,-384.01691)">
</g>
<g
   id="g18"
   transform="translate(1489.3772,-384.01691)">
</g>
<g
   id="g20"
   transform="translate(1489.3772,-384.01691)">
</g>
<g
   id="g22"
   transform="translate(1489.3772,-384.01691)">
</g>
<g
   id="g24"
   transform="translate(1489.3772,-384.01691)">
</g>
<g
   id="g26"
   transform="translate(1489.3772,-384.01691)">
</g>
<g
   id="g28"
   transform="translate(1489.3772,-384.01691)">
</g>
<g
   id="g30"
   transform="translate(1489.3772,-384.01691)">
</g>
<g
   id="g32"
   transform="translate(1489.3772,-384.01691)">
</g>
<path
   style="opacity:1;fill:#ffffff;fill-opacity:1;fill-rule:nonzero;stroke:none;stroke-width:18.89763832;stroke-linecap:round;stroke-linejoin:round;stroke-miterlimit:4;stroke-dasharray:none;stroke-dashoffset:0;stroke-opacity:1;paint-order:markers fill stroke"
   d="m 288.2925,80.937473 c -47.101,0 -79.3477,28.750777 -79.3477,81.550777 V 207.9863 H 171.062 c -4.959,0 -8.9741,4.02928 -8.9551,8.98828 l 0.1817,47.08789 c 0.019,4.932 4.023,8.91992 8.955,8.91992 h 37.9512 l -0.252,146.07813 63.711,0.002 0.25,-146.07812 h 50.4531 c 4.537,0 8.3586,-3.39635 8.8926,-7.90235 l 5.5801,-47.08593 c 0.632,-5.326 -3.5277,-10.00977 -8.8907,-10.00977 h -56.2851 v -39.38867 c 0,-17.863 4.9592,-30.03516 30.5742,-30.03516 l 23.7188,-0.01 c 4.943,-0.003 8.9511,-4.01108 8.9511,-8.95508 V 89.892553 c 0,-4.946 -4.0101,-8.95508 -8.9551,-8.95508 z"
   id="path867"
   inkscape:connector-curvature="0"
   sodipodi:nodetypes="sscsccsccccsscscsccssss" /></svg>