<?xml version="1.0" encoding="UTF-8" standalone="no"?>
<!-- Generator: Adobe Illustrator 19.0.0, SVG Export Plug-In . SVG Version: 6.00 Build 0)  -->

<svg
   xmlns:dc="http://purl.org/dc/elements/1.1/"
   xmlns:cc="http://creativecommons.org/ns#"
   xmlns:rdf="http://www.w3.org/1999/02/22-rdf-syntax-ns#"
   xmlns:svg="http://www.w3.org/2000/svg"
   xmlns="http://www.w3.org/2000/svg"
   xmlns:sodipodi="http://sodipodi.sourceforge.net/DTD/sodipodi-0.dtd"
   xmlns:inkscape="http://www.inkscape.org/namespaces/inkscape"
   version="1.1"
   id="Layer_1"
   x="0px"
   y="0px"
   viewBox="0 0 500.00001 500.00001"
   xml:space="preserve"
   sodipodi:docname="instagram.svg"
   width="500"
   height="500"
   inkscape:version="0.92.4 5da689c313, 2019-01-14"><metadata
   id="metadata39"><rdf:RDF><cc:Work
       rdf:about=""><dc:format>image/svg+xml</dc:format><dc:type
         rdf:resource="http://purl.org/dc/dcmitype/StillImage" /><dc:title></dc:title></cc:Work></rdf:RDF></metadata><defs
   id="defs37" /><sodipodi:namedview
   pagecolor="#ffffff"
   bordercolor="#666666"
   borderopacity="1"
   objecttolerance="10"
   gridtolerance="10"
   guidetolerance="10"
   inkscape:pageopacity="0"
   inkscape:pageshadow="2"
   inkscape:window-width="1366"
   inkscape:window-height="674"
   id="namedview35"
   showgrid="false"
   inkscape:zoom="0.57731637"
   inkscape:cx="638.55964"
   inkscape:cy="225.99779"
   inkscape:window-x="0"
   inkscape:window-y="26"
   inkscape:window-maximized="1"
   inkscape:current-layer="Layer_1" />
<path
   style="fill:#475993"
   d="m 1843.0782,-384.01691 h -298.614 c -30.422,0 -55.085,24.662 -55.085,55.085 v 298.616003 c 0,30.42300026 24.662,55.085 55.085,55.085 h 147.275 l 0.251,-146.078003 h -37.951 c -4.932,0 -8.935,-3.988 -8.954,-8.92 l -0.182,-47.087 c -0.019,-4.959 3.996,-8.989 8.955,-8.989 h 37.882 v -45.498 c 0,-52.8 32.247,-81.55 79.348,-81.55 h 38.65 c 4.945,0 8.955,4.009 8.955,8.955 v 39.704 c 0,4.944 -4.007,8.952 -8.95,8.955 l -23.719,0.011 c -25.615,0 -30.575,12.172 -30.575,30.035 v 39.389 h 56.285 c 5.363,0 9.524,4.683 8.892,10.009 l -5.581,47.087 c -0.534,4.506 -4.355,7.901 -8.892,7.901 h -50.453 l -0.251,146.078003 h 87.631 c 30.422,0 55.084,-24.66199974 55.084,-55.084 V -328.93191 c -10e-4,-30.423 -24.663,-55.085 -55.086,-55.085 z"
   id="path2"
   inkscape:connector-curvature="0" />
<g
   id="g4"
   transform="translate(1489.3772,-384.01691)">
</g>
<g
   id="g6"
   transform="translate(1489.3772,-384.01691)">
</g>
<g
   id="g8"
   transform="translate(1489.3772,-384.01691)">
</g>
<g
   id="g10"
   transform="translate(1489.3772,-384.01691)">
</g>
<g
   id="g12"
   transform="translate(1489.3772,-384.01691)">
</g>
<g
   id="g14"
   transform="translate(1489.3772,-384.01691)">
</g>
<g
   id="g16"
   transform="translate(1489.3772,-384.01691)">
</g>
<g
   id="g18"
   transform="translate(1489.3772,-384.01691)">
</g>
<g
   id="g20"
   transform="translate(1489.3772,-384.01691)">
</g>
<g
   id="g22"
   transform="translate(1489.3772,-384.01691)">
</g>
<g
   id="g24"
   transform="translate(1489.3772,-384.01691)">
</g>
<g
   id="g26"
   transform="translate(1489.3772,-384.01691)">
</g>
<g
   id="g28"
   transform="translate(1489.3772,-384.01691)">
</g>
<g
   id="g30"
   transform="translate(1489.3772,-384.01691)">
</g>
<g
   id="g32"
   transform="translate(1489.3772,-384.01691)">
</g>
<g
   id="g1108"
   transform="translate(-451.89062,-843.55724)"><g
     id="g1035">
	
		<linearGradient
   gradientTransform="matrix(1,0,0,-1,0,554)"
   y2="549.71997"
   x2="275.517"
   y1="4.5700002"
   x1="275.517"
   gradientUnits="userSpaceOnUse"
   id="SVGID_1_">
		<stop
   id="stop1002"
   style="stop-color:#E09B3D"
   offset="0" />
		<stop
   id="stop1004"
   style="stop-color:#C74C4D"
   offset="0.3" />
		<stop
   id="stop1006"
   style="stop-color:#C21975"
   offset="0.6" />
		<stop
   id="stop1008"
   style="stop-color:#7024C4"
   offset="1" />
	</linearGradient>
	<path
   id="path1011"
   d="M 386.878,0 H 164.156 C 73.64,0 0,73.64 0,164.156 v 222.722 c 0,90.516 73.64,164.156 164.156,164.156 h 222.722 c 90.516,0 164.156,-73.64 164.156,-164.156 V 164.156 C 551.033,73.64 477.393,0 386.878,0 Z M 495.6,386.878 C 495.6,446.923 446.923,495.6 386.878,495.6 H 164.156 C 104.111,495.6 55.434,446.923 55.434,386.878 V 164.156 c 0,-60.046 48.677,-108.722 108.722,-108.722 h 222.722 c 60.045,0 108.722,48.676 108.722,108.722 z"
   style="fill:url(#SVGID_1_)"
   inkscape:connector-curvature="0" />
	
		<linearGradient
   gradientTransform="matrix(1,0,0,-1,0,554)"
   y2="549.71997"
   x2="275.517"
   y1="4.5700002"
   x1="275.517"
   gradientUnits="userSpaceOnUse"
   id="SVGID_2_">
		<stop
   id="stop1013"
   style="stop-color:#E09B3D"
   offset="0" />
		<stop
   id="stop1015"
   style="stop-color:#C74C4D"
   offset="0.3" />
		<stop
   id="stop1017"
   style="stop-color:#C21975"
   offset="0.6" />
		<stop
   id="stop1019"
   style="stop-color:#7024C4"
   offset="1" />
	</linearGradient>
	<path
   id="path1022"
   d="M 275.517,133 C 196.933,133 133,196.933 133,275.516 c 0,78.583 63.933,142.517 142.517,142.517 78.584,0 142.517,-63.933 142.517,-142.517 C 418.034,196.932 354.101,133 275.517,133 Z m 0,229.6 c -48.095,0 -87.083,-38.988 -87.083,-87.083 0,-48.095 38.989,-87.083 87.083,-87.083 48.095,0 87.083,38.988 87.083,87.083 0,48.094 -38.989,87.083 -87.083,87.083 z"
   style="fill:url(#SVGID_2_)"
   inkscape:connector-curvature="0" />
	
		<linearGradient
   gradientTransform="matrix(1,0,0,-1,0,554)"
   y2="549.71997"
   x2="418.31"
   y1="4.5700002"
   x1="418.31"
   gradientUnits="userSpaceOnUse"
   id="SVGID_3_">
		<stop
   id="stop1024"
   style="stop-color:#E09B3D"
   offset="0" />
		<stop
   id="stop1026"
   style="stop-color:#C74C4D"
   offset="0.3" />
		<stop
   id="stop1028"
   style="stop-color:#C21975"
   offset="0.6" />
		<stop
   id="stop1030"
   style="stop-color:#7024C4"
   offset="1" />
	</linearGradient>
	<circle
   id="circle1033"
   r="34.150002"
   cy="134.07001"
   cx="418.31"
   style="fill:url(#SVGID_3_)" />
</g><g
     id="g1037">
</g><g
     id="g1039">
</g><g
     id="g1041">
</g><g
     id="g1043">
</g><g
     id="g1045">
</g><g
     id="g1047">
</g><g
     id="g1049">
</g><g
     id="g1051">
</g><g
     id="g1053">
</g><g
     id="g1055">
</g><g
     id="g1057">
</g><g
     id="g1059">
</g><g
     id="g1061">
</g><g
     id="g1063">
</g><g
     id="g1065">
</g></g><g
   transform="matrix(0.61021114,0,0,0.61021114,81.876466,81.876452)"
   id="g1178"
   style="stroke-width:1.63877702;fill:#ffffff"><g
     id="g1146"
     style="stroke-width:1.63877702;fill:#ffffff">
	
		<linearGradient
   id="linearGradient1118"
   gradientUnits="userSpaceOnUse"
   x1="275.517"
   y1="4.5700002"
   x2="275.517"
   y2="549.71997"
   gradientTransform="matrix(1,0,0,-1,0,554)">
		<stop
   offset="0"
   style="stop-color:#E09B3D"
   id="stop1110" />
		<stop
   offset="0.3"
   style="stop-color:#C74C4D"
   id="stop1112" />
		<stop
   offset="0.6"
   style="stop-color:#C21975"
   id="stop1114" />
		<stop
   offset="1"
   style="stop-color:#7024C4"
   id="stop1116" />
	</linearGradient>
	<path
   inkscape:connector-curvature="0"
   style="fill:#ffffff;stroke-width:1.63877702"
   d="M 386.878,0 H 164.156 C 73.64,0 0,73.64 0,164.156 v 222.722 c 0,90.516 73.64,164.156 164.156,164.156 h 222.722 c 90.516,0 164.156,-73.64 164.156,-164.156 V 164.156 C 551.033,73.64 477.393,0 386.878,0 Z M 495.6,386.878 C 495.6,446.923 446.923,495.6 386.878,495.6 H 164.156 C 104.111,495.6 55.434,446.923 55.434,386.878 V 164.156 c 0,-60.046 48.677,-108.722 108.722,-108.722 h 222.722 c 60.045,0 108.722,48.676 108.722,108.722 z"
   id="path1120" />
	
		<linearGradient
   id="linearGradient1130"
   gradientUnits="userSpaceOnUse"
   x1="275.517"
   y1="4.5700002"
   x2="275.517"
   y2="549.71997"
   gradientTransform="matrix(1,0,0,-1,0,554)">
		<stop
   offset="0"
   style="stop-color:#E09B3D"
   id="stop1122" />
		<stop
   offset="0.3"
   style="stop-color:#C74C4D"
   id="stop1124" />
		<stop
   offset="0.6"
   style="stop-color:#C21975"
   id="stop1126" />
		<stop
   offset="1"
   style="stop-color:#7024C4"
   id="stop1128" />
	</linearGradient>
	<path
   inkscape:connector-curvature="0"
   style="fill:#ffffff;stroke-width:1.63877702"
   d="M 275.517,133 C 196.933,133 133,196.933 133,275.516 c 0,78.583 63.933,142.517 142.517,142.517 78.584,0 142.517,-63.933 142.517,-142.517 C 418.034,196.932 354.101,133 275.517,133 Z m 0,229.6 c -48.095,0 -87.083,-38.988 -87.083,-87.083 0,-48.095 38.989,-87.083 87.083,-87.083 48.095,0 87.083,38.988 87.083,87.083 0,48.094 -38.989,87.083 -87.083,87.083 z"
   id="path1132" />
	
		<linearGradient
   id="linearGradient1142"
   gradientUnits="userSpaceOnUse"
   x1="418.31"
   y1="4.5700002"
   x2="418.31"
   y2="549.71997"
   gradientTransform="matrix(1,0,0,-1,0,554)">
		<stop
   offset="0"
   style="stop-color:#E09B3D"
   id="stop1134" />
		<stop
   offset="0.3"
   style="stop-color:#C74C4D"
   id="stop1136" />
		<stop
   offset="0.6"
   style="stop-color:#C21975"
   id="stop1138" />
		<stop
   offset="1"
   style="stop-color:#7024C4"
   id="stop1140" />
	</linearGradient>
	<circle
   style="fill:#ffffff;stroke-width:1.63877702"
   cx="418.31"
   cy="134.07001"
   r="34.150002"
   id="circle1144" />
</g><g
     id="g1148"
     style="stroke-width:1.63877702;fill:#ffffff">
</g><g
     id="g1150"
     style="stroke-width:1.63877702;fill:#ffffff">
</g><g
     id="g1152"
     style="stroke-width:1.63877702;fill:#ffffff">
</g><g
     id="g1154"
     style="stroke-width:1.63877702;fill:#ffffff">
</g><g
     id="g1156"
     style="stroke-width:1.63877702;fill:#ffffff">
</g><g
     id="g1158"
     style="stroke-width:1.63877702;fill:#ffffff">
</g><g
     id="g1160"
     style="stroke-width:1.63877702;fill:#ffffff">
</g><g
     id="g1162"
     style="stroke-width:1.63877702;fill:#ffffff">
</g><g
     id="g1164"
     style="stroke-width:1.63877702;fill:#ffffff">
</g><g
     id="g1166"
     style="stroke-width:1.63877702;fill:#ffffff">
</g><g
     id="g1168"
     style="stroke-width:1.63877702;fill:#ffffff">
</g><g
     id="g1170"
     style="stroke-width:1.63877702;fill:#ffffff">
</g><g
     id="g1172"
     style="stroke-width:1.63877702;fill:#ffffff">
</g><g
     id="g1174"
     style="stroke-width:1.63877702;fill:#ffffff">
</g><g
     id="g1176"
     style="stroke-width:1.63877702;fill:#ffffff">
</g></g></svg>