<?xml version="1.0" encoding="UTF-8" standalone="no"?>
<!-- Created with Inkscape (http://www.inkscape.org/) -->

<svg
   xmlns:dc="http://purl.org/dc/elements/1.1/"
   xmlns:cc="http://creativecommons.org/ns#"
   xmlns:rdf="http://www.w3.org/1999/02/22-rdf-syntax-ns#"
   xmlns:svg="http://www.w3.org/2000/svg"
   xmlns="http://www.w3.org/2000/svg"
   xmlns:sodipodi="http://sodipodi.sourceforge.net/DTD/sodipodi-0.dtd"
   xmlns:inkscape="http://www.inkscape.org/namespaces/inkscape"
   width="939.43573mm"
   height="424.21622mm"
   viewBox="0 0 939.43573 424.21622"
   version="1.1"
   id="svg8"
   sodipodi:docname="logo.svg"
   inkscape:version="0.92.4 5da689c313, 2019-01-14">
  <defs
     id="defs2">
    <marker
       inkscape:stockid="Arrow1Lstart"
       orient="auto"
       refY="0"
       refX="0"
       id="marker1257"
       style="overflow:visible"
       inkscape:isstock="true">
      <path
         id="path1255"
         d="M 0,0 5,-5 -12.5,0 5,5 Z"
         style="fill:#000000;fill-opacity:1;fill-rule:evenodd;stroke:#000000;stroke-width:1.00000003pt;stroke-opacity:1"
         transform="matrix(0.8,0,0,0.8,10,0)"
         inkscape:connector-curvature="0" />
    </marker>
    <marker
       inkscape:stockid="Arrow1Lstart"
       orient="auto"
       refY="0"
       refX="0"
       id="marker1229"
       style="overflow:visible"
       inkscape:isstock="true">
      <path
         id="path1227"
         d="M 0,0 5,-5 -12.5,0 5,5 Z"
         style="fill:#000000;fill-opacity:1;fill-rule:evenodd;stroke:#000000;stroke-width:1.00000003pt;stroke-opacity:1"
         transform="matrix(0.8,0,0,0.8,10,0)"
         inkscape:connector-curvature="0" />
    </marker>
    <marker
       inkscape:stockid="Arrow1Lstart"
       orient="auto"
       refY="0"
       refX="0"
       id="marker1207"
       style="overflow:visible"
       inkscape:isstock="true">
      <path
         id="path1205"
         d="M 0,0 5,-5 -12.5,0 5,5 Z"
         style="fill:#000000;fill-opacity:1;fill-rule:evenodd;stroke:#000000;stroke-width:1.00000003pt;stroke-opacity:1"
         transform="matrix(0.8,0,0,0.8,10,0)"
         inkscape:connector-curvature="0" />
    </marker>
    <marker
       inkscape:stockid="Arrow1Lstart"
       orient="auto"
       refY="0"
       refX="0"
       id="Arrow1Lstart"
       style="overflow:visible"
       inkscape:isstock="true">
      <path
         id="path929"
         d="M 0,0 5,-5 -12.5,0 5,5 Z"
         style="fill:#000000;fill-opacity:1;fill-rule:evenodd;stroke:#000000;stroke-width:1.00000003pt;stroke-opacity:1"
         transform="matrix(0.8,0,0,0.8,10,0)"
         inkscape:connector-curvature="0" />
    </marker>
  </defs>
  <sodipodi:namedview
     id="base"
     pagecolor="#ffffff"
     bordercolor="#666666"
     borderopacity="1.0"
     inkscape:pageopacity="0.0"
     inkscape:pageshadow="2"
     inkscape:zoom="0.16"
     inkscape:cx="3032.9377"
     inkscape:cy="1254.5784"
     inkscape:document-units="mm"
     inkscape:current-layer="layer1"
     showgrid="false"
     inkscape:snap-center="true"
     inkscape:snap-object-midpoints="true"
     showguides="true"
     inkscape:guide-bbox="true"
     inkscape:window-width="1366"
     inkscape:window-height="674"
     inkscape:window-x="0"
     inkscape:window-y="26"
     inkscape:window-maximized="1"
     inkscape:snap-intersection-paths="false"
     inkscape:object-paths="false"
     inkscape:snap-smooth-nodes="true"
     inkscape:snap-global="false">
    <sodipodi:guide
       position="19731.468,-1805.8006"
       orientation="1,0"
       id="guide826"
       inkscape:locked="false" />
    <sodipodi:guide
       position="19759.163,-1778.1055"
       orientation="1,0"
       id="guide828"
       inkscape:locked="false" />
    <sodipodi:guide
       position="19731.468,-1865.2729"
       orientation="0,1"
       id="guide834"
       inkscape:locked="false" />
    <sodipodi:guide
       position="19811.221,-1811.2337"
       orientation="0,1"
       id="guide836"
       inkscape:locked="false" />
    <sodipodi:guide
       position="19862.309,-1828.292"
       orientation="1,0"
       id="guide866"
       inkscape:locked="false" />
    <sodipodi:guide
       position="19912.825,-1849.1604"
       orientation="1,0"
       id="guide868"
       inkscape:locked="false" />
    <sodipodi:guide
       position="19832.613,-1865.2729"
       orientation="1,0"
       id="guide872"
       inkscape:locked="false" />
    <sodipodi:guide
       position="19776.585,-1833.4678"
       orientation="1,0"
       id="guide874"
       inkscape:locked="false" />
    <sodipodi:guide
       position="19912.825,-1849.1604"
       orientation="-0.38180615,-0.92424243"
       id="guide902"
       inkscape:locked="false" />
    <sodipodi:guide
       position="18887.301,-1783.8468"
       orientation="0,1"
       id="guide921"
       inkscape:locked="false" />
    <sodipodi:guide
       position="19942.304,-1837.7192"
       orientation="1,0"
       id="guide923"
       inkscape:locked="false" />
    <sodipodi:guide
       position="18750.576,-1935.8847"
       orientation="1,0"
       id="guide945"
       inkscape:locked="false" />
    <sodipodi:guide
       position="18805.9,-1994.4626"
       orientation="1,0"
       id="guide947"
       inkscape:locked="false" />
    <sodipodi:guide
       position="18586.167,-1892.6598"
       orientation="0,1"
       id="guide969"
       inkscape:locked="false" />
    <sodipodi:guide
       position="18204.52,-1865.2729"
       orientation="1,0"
       id="guide994"
       inkscape:locked="false" />
    <sodipodi:guide
       position="18022.519,-1865.2729"
       orientation="1,0"
       id="guide1032"
       inkscape:locked="false" />
    <sodipodi:guide
       position="17967.129,-1837.7192"
       orientation="1,0"
       id="guide1034"
       inkscape:locked="false" />
    <sodipodi:guide
       position="19151.148,-1811.2337"
       orientation="1,0"
       id="guide1170"
       inkscape:locked="false" />
    <sodipodi:guide
       position="19233.976,-1842.5943"
       orientation="1,0"
       id="guide1172"
       inkscape:locked="false" />
    <sodipodi:guide
       position="1088.19,556.94678"
       orientation="0,1"
       id="guide4766"
       inkscape:locked="false" />
  </sodipodi:namedview>
  <metadata
     id="metadata5">
    <rdf:RDF>
      <cc:Work
         rdf:about="">
        <dc:format>image/svg+xml</dc:format>
        <dc:type
           rdf:resource="http://purl.org/dc/dcmitype/StillImage" />
        <dc:title></dc:title>
      </cc:Work>
    </rdf:RDF>
  </metadata>
  <g
     inkscape:label="Layer 1"
     inkscape:groupmode="layer"
     id="layer1"
     transform="translate(20146.486,2140.2892)">
    <path
       style="color:#000000;font-style:normal;font-variant:normal;font-weight:normal;font-stretch:normal;font-size:medium;line-height:normal;font-family:sans-serif;font-variant-ligatures:normal;font-variant-position:normal;font-variant-caps:normal;font-variant-numeric:normal;font-variant-alternates:normal;font-feature-settings:normal;text-indent:0;text-align:start;text-decoration:none;text-decoration-line:none;text-decoration-style:solid;text-decoration-color:#000000;letter-spacing:normal;word-spacing:normal;text-transform:none;writing-mode:lr-tb;direction:ltr;text-orientation:mixed;dominant-baseline:auto;baseline-shift:baseline;text-anchor:start;white-space:normal;shape-padding:0;clip-rule:nonzero;display:inline;overflow:visible;visibility:visible;opacity:1;isolation:auto;mix-blend-mode:normal;color-interpolation:sRGB;color-interpolation-filters:linearRGB;solid-color:#000000;solid-opacity:1;vector-effect:none;fill:#ffffff;fill-opacity:1;fill-rule:nonzero;stroke:none;stroke-width:20;stroke-linecap:round;stroke-linejoin:round;stroke-miterlimit:4;stroke-dasharray:none;stroke-dashoffset:0;stroke-opacity:1;paint-order:markers fill stroke;color-rendering:auto;image-rendering:auto;shape-rendering:auto;text-rendering:auto;enable-background:accumulate"
       d="m -19874.479,-2140.2854 a 41.712436,41.712436 0 0 1 0.07,0 z m 0.07,0 a 41.712436,41.712436 0 0 0 -41.044,42.2931 v 86.0687 c -22.055,-11.8495 -47.194,-18.5962 -73.81,-18.5962 -86.339,0 -157.223,70.8854 -157.223,157.2216 0,86.3349 70.884,157.2193 157.223,157.2193 a 41.712436,41.712436 0 1 0 0,-83.4131 c -41.254,0 -73.807,-32.5526 -73.807,-73.8062 0,-41.2549 32.553,-73.8027 73.807,-73.8027 41.254,0 73.8,32.5478 73.8,73.8027 v 114.9259 a 41.712436,41.712436 0 0 0 0,1.0401 41.712436,41.712436 0 0 0 83.327,1.2673 41.712436,41.712436 0 0 0 0,-2.3074 v -114.9259 -138.6312 -86.0629 a 41.712436,41.712436 0 0 0 -42.273,-42.2931 z m 431.528,0.5927 c -23.515,-0.3686 -42.679,18.7639 -42.355,42.2782 v 224.93 c 0,85.8884 70.527,156.4056 156.414,156.4056 23.04,0 41.712,-18.6731 41.712,-41.7097 0,-23.0355 -18.679,-41.7092 -41.712,-41.7068 -40.806,0 -72.994,-32.1819 -72.994,-72.9891 v -0.8078 c 0,-41.255 32.553,-73.8 73.807,-73.8 19.666,0 37.058,7.4619 50.288,19.7799 a 41.712436,41.712436 0 1 0 56.846,-61.0418 c -28.03,-26.1091 -65.973,-42.157 -107.134,-42.157 -26.609,0 -51.755,6.7446 -73.807,18.5907 v -85.494 c 0.275,-23.0056 -18.063,-41.9216 -41.065,-42.2782 z m -215.759,109.1729 c -86.338,0 -157.223,70.8854 -157.223,157.2216 0,86.3349 70.885,157.2193 157.223,157.2193 86.339,0 157.217,-70.8844 157.217,-157.2193 0,-86.3362 -70.878,-157.2216 -157.217,-157.2216 z"
       id="path4835"
       inkscape:connector-curvature="0" />
  </g>
</svg>
