<?xml version="1.0" encoding="UTF-8" standalone="no"?>
<!-- Generator: Adobe Illustrator 19.0.0, SVG Export Plug-In . SVG Version: 6.00 Build 0)  -->

<svg
   xmlns:dc="http://purl.org/dc/elements/1.1/"
   xmlns:cc="http://creativecommons.org/ns#"
   xmlns:rdf="http://www.w3.org/1999/02/22-rdf-syntax-ns#"
   xmlns:svg="http://www.w3.org/2000/svg"
   xmlns="http://www.w3.org/2000/svg"
   xmlns:sodipodi="http://sodipodi.sourceforge.net/DTD/sodipodi-0.dtd"
   xmlns:inkscape="http://www.inkscape.org/namespaces/inkscape"
   version="1.1"
   id="Layer_1"
   x="0px"
   y="0px"
   viewBox="0 0 500.00001 500.00001"
   xml:space="preserve"
   sodipodi:docname="twitter.svg"
   width="500"
   height="500"
   inkscape:version="0.92.4 5da689c313, 2019-01-14"><metadata
   id="metadata39"><rdf:RDF><cc:Work
       rdf:about=""><dc:format>image/svg+xml</dc:format><dc:type
         rdf:resource="http://purl.org/dc/dcmitype/StillImage" /><dc:title></dc:title></cc:Work></rdf:RDF></metadata><defs
   id="defs37" /><sodipodi:namedview
   pagecolor="#ffffff"
   bordercolor="#666666"
   borderopacity="1"
   objecttolerance="10"
   gridtolerance="10"
   guidetolerance="10"
   inkscape:pageopacity="0"
   inkscape:pageshadow="2"
   inkscape:window-width="1366"
   inkscape:window-height="674"
   id="namedview35"
   showgrid="false"
   inkscape:zoom="0.57731637"
   inkscape:cx="399.27189"
   inkscape:cy="231.44875"
   inkscape:window-x="0"
   inkscape:window-y="26"
   inkscape:window-maximized="1"
   inkscape:current-layer="Layer_1" />
<path
   style="fill:#475993"
   d="m 1843.0782,-384.01691 h -298.614 c -30.422,0 -55.085,24.662 -55.085,55.085 v 298.616003 c 0,30.42300026 24.662,55.085 55.085,55.085 h 147.275 l 0.251,-146.078003 h -37.951 c -4.932,0 -8.935,-3.988 -8.954,-8.92 l -0.182,-47.087 c -0.019,-4.959 3.996,-8.989 8.955,-8.989 h 37.882 v -45.498 c 0,-52.8 32.247,-81.55 79.348,-81.55 h 38.65 c 4.945,0 8.955,4.009 8.955,8.955 v 39.704 c 0,4.944 -4.007,8.952 -8.95,8.955 l -23.719,0.011 c -25.615,0 -30.575,12.172 -30.575,30.035 v 39.389 h 56.285 c 5.363,0 9.524,4.683 8.892,10.009 l -5.581,47.087 c -0.534,4.506 -4.355,7.901 -8.892,7.901 h -50.453 l -0.251,146.078003 h 87.631 c 30.422,0 55.084,-24.66199974 55.084,-55.084 V -328.93191 c -10e-4,-30.423 -24.663,-55.085 -55.086,-55.085 z"
   id="path2"
   inkscape:connector-curvature="0" />
<g
   id="g4"
   transform="translate(1489.3772,-384.01691)">
</g>
<g
   id="g6"
   transform="translate(1489.3772,-384.01691)">
</g>
<g
   id="g8"
   transform="translate(1489.3772,-384.01691)">
</g>
<g
   id="g10"
   transform="translate(1489.3772,-384.01691)">
</g>
<g
   id="g12"
   transform="translate(1489.3772,-384.01691)">
</g>
<g
   id="g14"
   transform="translate(1489.3772,-384.01691)">
</g>
<g
   id="g16"
   transform="translate(1489.3772,-384.01691)">
</g>
<g
   id="g18"
   transform="translate(1489.3772,-384.01691)">
</g>
<g
   id="g20"
   transform="translate(1489.3772,-384.01691)">
</g>
<g
   id="g22"
   transform="translate(1489.3772,-384.01691)">
</g>
<g
   id="g24"
   transform="translate(1489.3772,-384.01691)">
</g>
<g
   id="g26"
   transform="translate(1489.3772,-384.01691)">
</g>
<g
   id="g28"
   transform="translate(1489.3772,-384.01691)">
</g>
<g
   id="g30"
   transform="translate(1489.3772,-384.01691)">
</g>
<g
   id="g32"
   transform="translate(1489.3772,-384.01691)">
</g>
<g
   id="g1108"
   transform="translate(-451.89062,-843.55724)"><g
     id="g1035">
	
		<linearGradient
   gradientTransform="matrix(1,0,0,-1,0,554)"
   y2="549.71997"
   x2="275.517"
   y1="4.5700002"
   x1="275.517"
   gradientUnits="userSpaceOnUse"
   id="SVGID_1_">
		<stop
   id="stop1002"
   style="stop-color:#E09B3D"
   offset="0" />
		<stop
   id="stop1004"
   style="stop-color:#C74C4D"
   offset="0.3" />
		<stop
   id="stop1006"
   style="stop-color:#C21975"
   offset="0.6" />
		<stop
   id="stop1008"
   style="stop-color:#7024C4"
   offset="1" />
	</linearGradient>
	<path
   id="path1011"
   d="M 386.878,0 H 164.156 C 73.64,0 0,73.64 0,164.156 v 222.722 c 0,90.516 73.64,164.156 164.156,164.156 h 222.722 c 90.516,0 164.156,-73.64 164.156,-164.156 V 164.156 C 551.033,73.64 477.393,0 386.878,0 Z M 495.6,386.878 C 495.6,446.923 446.923,495.6 386.878,495.6 H 164.156 C 104.111,495.6 55.434,446.923 55.434,386.878 V 164.156 c 0,-60.046 48.677,-108.722 108.722,-108.722 h 222.722 c 60.045,0 108.722,48.676 108.722,108.722 z"
   style="fill:url(#SVGID_1_)"
   inkscape:connector-curvature="0" />
	
		<linearGradient
   gradientTransform="matrix(1,0,0,-1,0,554)"
   y2="549.71997"
   x2="275.517"
   y1="4.5700002"
   x1="275.517"
   gradientUnits="userSpaceOnUse"
   id="SVGID_2_">
		<stop
   id="stop1013"
   style="stop-color:#E09B3D"
   offset="0" />
		<stop
   id="stop1015"
   style="stop-color:#C74C4D"
   offset="0.3" />
		<stop
   id="stop1017"
   style="stop-color:#C21975"
   offset="0.6" />
		<stop
   id="stop1019"
   style="stop-color:#7024C4"
   offset="1" />
	</linearGradient>
	<path
   id="path1022"
   d="M 275.517,133 C 196.933,133 133,196.933 133,275.516 c 0,78.583 63.933,142.517 142.517,142.517 78.584,0 142.517,-63.933 142.517,-142.517 C 418.034,196.932 354.101,133 275.517,133 Z m 0,229.6 c -48.095,0 -87.083,-38.988 -87.083,-87.083 0,-48.095 38.989,-87.083 87.083,-87.083 48.095,0 87.083,38.988 87.083,87.083 0,48.094 -38.989,87.083 -87.083,87.083 z"
   style="fill:url(#SVGID_2_)"
   inkscape:connector-curvature="0" />
	
		<linearGradient
   gradientTransform="matrix(1,0,0,-1,0,554)"
   y2="549.71997"
   x2="418.31"
   y1="4.5700002"
   x1="418.31"
   gradientUnits="userSpaceOnUse"
   id="SVGID_3_">
		<stop
   id="stop1024"
   style="stop-color:#E09B3D"
   offset="0" />
		<stop
   id="stop1026"
   style="stop-color:#C74C4D"
   offset="0.3" />
		<stop
   id="stop1028"
   style="stop-color:#C21975"
   offset="0.6" />
		<stop
   id="stop1030"
   style="stop-color:#7024C4"
   offset="1" />
	</linearGradient>
	<circle
   id="circle1033"
   r="34.150002"
   cy="134.07001"
   cx="418.31"
   style="fill:url(#SVGID_3_)" />
</g><g
     id="g1037">
</g><g
     id="g1039">
</g><g
     id="g1041">
</g><g
     id="g1043">
</g><g
     id="g1045">
</g><g
     id="g1047">
</g><g
     id="g1049">
</g><g
     id="g1051">
</g><g
     id="g1053">
</g><g
     id="g1055">
</g><g
     id="g1057">
</g><g
     id="g1059">
</g><g
     id="g1061">
</g><g
     id="g1063">
</g><g
     id="g1065">
</g></g><g
   id="g1260"
   transform="translate(-814.7955,461.20914)"><path
     id="path1205"
     d="m 403.632,74.18 c -9.113,4.041 -18.573,7.229 -28.28,9.537 C 386.048,73.553 394.09,60.84 398.627,46.65 v 0 c 1.295,-4.051 -3.105,-7.554 -6.763,-5.385 v 0 c -13.504,8.01 -28.05,14.019 -43.235,17.862 -0.881,0.223 -1.79,0.336 -2.702,0.336 -2.766,0 -5.455,-1.027 -7.57,-2.891 -16.156,-14.239 -36.935,-22.081 -58.508,-22.081 -9.335,0 -18.76,1.455 -28.014,4.325 -28.672,8.893 -50.795,32.544 -57.736,61.724 -2.604,10.945 -3.309,21.9 -2.097,32.56 0.139,1.225 -0.44,2.08 -0.797,2.481 -0.627,0.703 -1.516,1.106 -2.439,1.106 -0.103,0 -0.209,-0.005 -0.314,-0.015 C 125.69,130.841 69.094,100.604 29.089,51.532 v 0 c -2.04,-2.503 -5.952,-2.196 -7.578,0.593 v 0 C 13.677,65.565 9.537,80.937 9.537,96.579 c 0,23.972 9.631,46.563 26.36,63.032 -7.035,-1.668 -13.844,-4.295 -20.169,-7.808 v 0 c -3.06,-1.7 -6.825,0.485 -6.868,3.985 v 0 c -0.438,35.612 20.412,67.3 51.646,81.569 -0.629,0.015 -1.258,0.022 -1.888,0.022 -4.951,0 -9.964,-0.478 -14.898,-1.421 v 0 c -3.446,-0.658 -6.341,2.611 -5.271,5.952 v 0 c 10.138,31.651 37.39,54.981 70.002,60.278 -27.066,18.169 -58.585,27.753 -91.39,27.753 L 6.834,329.935 c -3.151,0 -5.816,2.054 -6.619,5.106 -0.791,3.006 0.666,6.177 3.353,7.74 36.966,21.513 79.131,32.883 121.955,32.883 37.485,0 72.549,-7.439 104.219,-22.109 29.033,-13.449 54.689,-32.674 76.255,-57.141 20.09,-22.792 35.8,-49.103 46.692,-78.201 10.383,-27.737 15.871,-57.333 15.871,-85.589 v -1.346 c -10e-4,-4.537 2.051,-8.806 5.631,-11.712 13.585,-11.03 25.415,-24.014 35.16,-38.591 v 0 c 2.573,-3.849 -1.485,-8.673 -5.719,-6.795 z"
     style="fill:#76a9ea"
     inkscape:connector-curvature="0" /><g
     id="g1207">
</g><g
     id="g1209">
</g><g
     id="g1211">
</g><g
     id="g1213">
</g><g
     id="g1215">
</g><g
     id="g1217">
</g><g
     id="g1219">
</g><g
     id="g1221">
</g><g
     id="g1223">
</g><g
     id="g1225">
</g><g
     id="g1227">
</g><g
     id="g1229">
</g><g
     id="g1231">
</g><g
     id="g1233">
</g><g
     id="g1235">
</g></g><g
   transform="matrix(0.91553666,0,0,0.91553666,62.243768,62.244025)"
   id="g1294"
   style="stroke-width:1.09225559;fill:#ffffff"><path
     inkscape:connector-curvature="0"
     style="fill:#ffffff;stroke-width:1.09225559"
     d="m 403.632,74.18 c -9.113,4.041 -18.573,7.229 -28.28,9.537 C 386.048,73.553 394.09,60.84 398.627,46.65 v 0 c 1.295,-4.051 -3.105,-7.554 -6.763,-5.385 v 0 c -13.504,8.01 -28.05,14.019 -43.235,17.862 -0.881,0.223 -1.79,0.336 -2.702,0.336 -2.766,0 -5.455,-1.027 -7.57,-2.891 -16.156,-14.239 -36.935,-22.081 -58.508,-22.081 -9.335,0 -18.76,1.455 -28.014,4.325 -28.672,8.893 -50.795,32.544 -57.736,61.724 -2.604,10.945 -3.309,21.9 -2.097,32.56 0.139,1.225 -0.44,2.08 -0.797,2.481 -0.627,0.703 -1.516,1.106 -2.439,1.106 -0.103,0 -0.209,-0.005 -0.314,-0.015 C 125.69,130.841 69.094,100.604 29.089,51.532 v 0 c -2.04,-2.503 -5.952,-2.196 -7.578,0.593 v 0 C 13.677,65.565 9.537,80.937 9.537,96.579 c 0,23.972 9.631,46.563 26.36,63.032 -7.035,-1.668 -13.844,-4.295 -20.169,-7.808 v 0 c -3.06,-1.7 -6.825,0.485 -6.868,3.985 v 0 c -0.438,35.612 20.412,67.3 51.646,81.569 -0.629,0.015 -1.258,0.022 -1.888,0.022 -4.951,0 -9.964,-0.478 -14.898,-1.421 v 0 c -3.446,-0.658 -6.341,2.611 -5.271,5.952 v 0 c 10.138,31.651 37.39,54.981 70.002,60.278 -27.066,18.169 -58.585,27.753 -91.39,27.753 L 6.834,329.935 c -3.151,0 -5.816,2.054 -6.619,5.106 -0.791,3.006 0.666,6.177 3.353,7.74 36.966,21.513 79.131,32.883 121.955,32.883 37.485,0 72.549,-7.439 104.219,-22.109 29.033,-13.449 54.689,-32.674 76.255,-57.141 20.09,-22.792 35.8,-49.103 46.692,-78.201 10.383,-27.737 15.871,-57.333 15.871,-85.589 v -1.346 c -10e-4,-4.537 2.051,-8.806 5.631,-11.712 13.585,-11.03 25.415,-24.014 35.16,-38.591 v 0 c 2.573,-3.849 -1.485,-8.673 -5.719,-6.795 z"
     id="path1262" /><g
     id="g1264"
     style="stroke-width:1.09225559;fill:#ffffff">
</g><g
     id="g1266"
     style="stroke-width:1.09225559;fill:#ffffff">
</g><g
     id="g1268"
     style="stroke-width:1.09225559;fill:#ffffff">
</g><g
     id="g1270"
     style="stroke-width:1.09225559;fill:#ffffff">
</g><g
     id="g1272"
     style="stroke-width:1.09225559;fill:#ffffff">
</g><g
     id="g1274"
     style="stroke-width:1.09225559;fill:#ffffff">
</g><g
     id="g1276"
     style="stroke-width:1.09225559;fill:#ffffff">
</g><g
     id="g1278"
     style="stroke-width:1.09225559;fill:#ffffff">
</g><g
     id="g1280"
     style="stroke-width:1.09225559;fill:#ffffff">
</g><g
     id="g1282"
     style="stroke-width:1.09225559;fill:#ffffff">
</g><g
     id="g1284"
     style="stroke-width:1.09225559;fill:#ffffff">
</g><g
     id="g1286"
     style="stroke-width:1.09225559;fill:#ffffff">
</g><g
     id="g1288"
     style="stroke-width:1.09225559;fill:#ffffff">
</g><g
     id="g1290"
     style="stroke-width:1.09225559;fill:#ffffff">
</g><g
     id="g1292"
     style="stroke-width:1.09225559;fill:#ffffff">
</g></g></svg>